<?xml version="1.0" encoding="utf-8"?>
<svg xmlns="http://www.w3.org/2000/svg" viewBox="0 0 40 40" width="480" height="480">
  <path fill="#98ccfd" d="M28.3,13.5c0,0,0,3.5-3.1,4.5c-4.5,1.2-10.9,20.5-5.2,20.5c6.8,0,12.4-5.4,12.4-12 C32.4,19,28.3,13.5,28.3,13.5z" />
  <path fill="#98ccfd" d="M25.2,18c0,0,0.3-2.5,0.3-5c0-5.8-3.9-10.3-6.5-11.5c0,8.5-11.3,16-11.3,25c0,6.6,5.5,12,12.4,12 C25.5,37.6,28.4,31.3,25.2,18z" />
  <path fill="#98ccfd" d="M28.3,13.5c0,0,0,3.5-3.1,4.5C11.9,21.2,12.9,38.4,20,38.5c6.8,0,12.4-5.4,12.4-12 C32.4,19,28.3,13.5,28.3,13.5z" />
  <path fill="#fff" d="M20,17c0.1,0.5,0.2,1.4,0.2,2c0,6.1-6.7,7.1-7.2,12c0,3.5,1,7.5,6.7,7.5c4.3,0,7.3-3.8,7.3-8.4 C27,25.5,21.2,17.6,20,17z" />
  <path fill="none" stroke="#4788c7" stroke-linecap="round" stroke-linejoin="round" d="M25.2,18c3.1-1,3.1-4.5,3.1-4.5s4.1,5.5,4.1,13c0,6.6-5.5,12-12.4,12" />
  <g>
    <path fill="none" stroke="#4788c7" stroke-linecap="round" stroke-linejoin="round" d="M20,38.5c-6.8,0-12.4-5.4-12.4-12c0-9,11.3-16.5,11.3-25c2.6,1.2,6.5,5.7,6.5,11.5c0,2.5-0.3,5-0.3,5" />
  </g>
</svg>