<?xml version="1.0" encoding="utf-8"?>
<svg xmlns="http://www.w3.org/2000/svg" viewBox="0 0 100 100" width="500" height="500">
  <path fill="#f1bc19" d="M77 12A1 1 0 1 0 77 14A1 1 0 1 0 77 12Z" />
  <path fill="#e6edb7" d="M50 13A37 37 0 1 0 50 87A37 37 0 1 0 50 13Z" />
  <path fill="#f1bc19" d="M83 11A4 4 0 1 0 83 19A4 4 0 1 0 83 11Z" />
  <path fill="#88ae45" d="M87 22A2 2 0 1 0 87 26A2 2 0 1 0 87 22Z" />
  <path fill="#fbcd59" d="M81 74A2 2 0 1 0 81 78 2 2 0 1 0 81 74zM15 59A4 4 0 1 0 15 67 4 4 0 1 0 15 59z" />
  <path fill="#88ae45" d="M25 85A2 2 0 1 0 25 89A2 2 0 1 0 25 85Z" />
  <path fill="#fff" d="M18.5 49A2.5 2.5 0 1 0 18.5 54 2.5 2.5 0 1 0 18.5 49zM79.5 32A1.5 1.5 0 1 0 79.5 35 1.5 1.5 0 1 0 79.5 32z" />
  <path fill="#f15b6c" d="M68,60.514C68,70.723,59.717,79,49.5,79S31,70.723,31,60.514C31,46.649,47.958,35.095,47.958,22 c3.852,1.924,10.021,8.727,10.021,17.716c0,3.851-0.771,7.703-0.771,7.703c4.625-1.541,4.625-6.932,4.625-6.932 S68,48.959,68,60.514z" />
  <path fill="#472b29" d="M49.5,79.7c-10.587,0-19.2-8.607-19.2-19.187c0-7.246,4.464-13.835,8.782-20.207 c4.205-6.206,8.177-12.067,8.177-18.307c0-0.242,0.126-0.468,0.332-0.596c0.206-0.127,0.464-0.139,0.681-0.03 c4.321,2.158,10.408,9.276,10.408,18.342c0,2.539-0.323,5.048-0.555,6.521c2.955-1.764,3.008-5.572,3.009-5.751 c0.001-0.303,0.197-0.571,0.485-0.664c0.289-0.097,0.603,0.008,0.781,0.253c0.257,0.354,6.301,8.791,6.301,20.439 C68.7,71.093,60.087,79.7,49.5,79.7z M48.614,23.186c-0.464,6.233-4.481,12.162-8.374,17.906 C36.042,47.289,31.7,53.697,31.7,60.514c0,9.808,7.985,17.786,17.8,17.786s17.8-7.979,17.8-17.786 c0-8.354-3.336-15.132-5.047-18.058c-0.458,1.879-1.661,4.573-4.823,5.627c-0.235,0.08-0.497,0.026-0.685-0.14 c-0.187-0.165-0.272-0.417-0.223-0.662c0.008-0.037,0.757-3.832,0.757-7.565C57.279,32.013,52.417,25.665,48.614,23.186z" />
  <g>
    <path fill="#f69272" d="M55.76,53.196c-3.06-5.372-6.691-8.473-6.691-8.473C49.069,55.507,39,60.899,39,68.216 c0,5.743,4.681,10.399,10.456,10.399s10.456-4.656,10.456-10.399c0-1.193-0.083-2.347-0.223-3.466 C59.098,60.675,57.801,56.819,55.76,53.196z" />
  </g>
  <g>
    <path fill="#472b29" d="M56.983,56.007c-0.188,0-0.367-0.105-0.453-0.286c-0.122-0.259-0.246-0.51-0.372-0.76 c-0.124-0.247-0.024-0.548,0.223-0.672c0.247-0.123,0.547-0.023,0.671,0.223c0.129,0.258,0.257,0.517,0.382,0.781 c0.118,0.25,0.011,0.548-0.239,0.666C57.127,55.991,57.055,56.007,56.983,56.007z" />
  </g>
  <g>
    <path fill="#472b29" d="M58.735,60.628c-0.217,0-0.416-0.142-0.48-0.359c-0.298-1.019-0.655-2.039-1.062-3.032 c-0.104-0.256,0.018-0.548,0.273-0.652c0.254-0.104,0.547,0.018,0.652,0.273c0.419,1.025,0.788,2.078,1.096,3.13 c0.078,0.266-0.075,0.543-0.34,0.62C58.829,60.621,58.782,60.628,58.735,60.628z" />
  </g>
  <g>
    <path fill="#472b29" d="M49.456,79.115c-6.041,0-10.956-4.89-10.956-10.899c0-3.464,2.136-6.492,4.398-9.699 c2.658-3.769,5.67-8.039,5.67-13.794c0-0.195,0.113-0.372,0.291-0.454c0.178-0.081,0.386-0.052,0.534,0.074 c0.151,0.129,3.732,3.22,6.801,8.606c0.137,0.239,0.053,0.545-0.187,0.682c-0.241,0.135-0.546,0.053-0.682-0.188 c-2.136-3.749-4.569-6.391-5.792-7.599c-0.353,5.5-3.246,9.603-5.818,13.248C41.454,62.3,39.5,65.069,39.5,68.216 c0,5.459,4.466,9.899,9.956,9.899s9.956-4.44,9.956-9.899c0-1.112-0.072-2.226-0.219-3.403c-0.034-0.274,0.16-0.524,0.434-0.559 c0.278-0.032,0.523,0.16,0.558,0.434c0.153,1.221,0.227,2.374,0.227,3.528C60.412,74.226,55.497,79.115,49.456,79.115z" />
  </g>
  <g>
    <path fill="#f9e65c" d="M51.453,58.588c-0.484-0.77-0.99-1.54-1.539-2.311c0,6.932-6.915,10.014-6.915,15.791 c0,3.616,2.924,6.547,6.53,6.547c3.606,0,6.53-2.932,6.53-6.547c0-0.887-0.076-1.787-0.217-2.696 C54.983,65.598,53.648,61.966,51.453,58.588z" />
  </g>
  <g>
    <path fill="#472b29" d="M54.588,65.25c-0.202,0-0.392-0.123-0.467-0.322c-0.096-0.253-0.196-0.504-0.3-0.758 c-0.105-0.255,0.016-0.547,0.271-0.652c0.254-0.104,0.547,0.015,0.653,0.271c0.108,0.262,0.211,0.522,0.311,0.783 c0.098,0.258-0.031,0.547-0.29,0.646C54.707,65.239,54.647,65.25,54.588,65.25z" />
  </g>
  <g>
    <path fill="#472b29" d="M53.589,62.939c-0.187,0-0.365-0.104-0.451-0.283c-0.243-0.506-0.498-1.012-0.772-1.52 c-0.132-0.243-0.042-0.546,0.201-0.678c0.242-0.133,0.546-0.042,0.678,0.201c0.283,0.521,0.545,1.043,0.795,1.563 c0.12,0.249,0.015,0.548-0.234,0.667C53.735,62.924,53.662,62.939,53.589,62.939z" />
  </g>
  <g>
    <path fill="#472b29" d="M49.53,79.115c-3.876,0-7.03-3.162-7.03-7.048c0-2.921,1.612-5.114,3.318-7.437 c1.768-2.406,3.596-4.894,3.596-8.354c0-0.218,0.141-0.41,0.348-0.477c0.208-0.062,0.433,0.009,0.56,0.187 c0.499,0.7,0.993,1.441,1.555,2.334c0.147,0.234,0.077,0.543-0.157,0.689c-0.233,0.151-0.542,0.076-0.689-0.156 c-0.25-0.397-0.486-0.765-0.715-1.11c-0.417,3.024-2.078,5.284-3.691,7.479c-1.606,2.186-3.124,4.251-3.124,6.844 c0,3.335,2.705,6.048,6.03,6.048s6.031-2.713,6.031-6.048c0-0.834-0.071-1.715-0.211-2.619c-0.042-0.272,0.145-0.528,0.417-0.57 c0.272-0.042,0.529,0.145,0.571,0.418c0.148,0.954,0.223,1.887,0.223,2.771C56.561,75.953,53.407,79.115,49.53,79.115z" />
  </g>
</svg>