<?xml version="1.0" encoding="utf-8"?>
<svg xmlns="http://www.w3.org/2000/svg" viewBox="0 0 100 100" width="1000" height="1000">
  <circle cx="77" cy="13" r="1" fill="#f1bc19" />
  <circle cx="50" cy="50" r="37" fill="#e6edb7" />
  <circle cx="83" cy="15" r="4" fill="#f1bc19" />
  <circle cx="87" cy="24" r="2" fill="#9f8066" />
  <circle cx="81" cy="76" r="2" fill="#fbcd59" />
  <circle cx="15" cy="64" r="4" fill="#fbcd59" />
  <circle cx="25" cy="87" r="2" fill="#9f8066" />
  <circle cx="26.5" cy="28.5" r="2.5" fill="#fff" />
  <circle cx="79.5" cy="33.5" r="1.5" fill="#fff" />
  <path fill="#fbcd59" d="M34.017,67C24.634,67,17,59.374,17,50s7.634-17,17.017-17c1.733,0,3.445,0.26,5.085,0.773 l-1.27,4.056c-1.229-0.384-2.512-0.579-3.815-0.579c-7.037,0-12.763,5.72-12.763,12.75s5.725,12.75,12.763,12.75 c7.156,0,11.963-8.918,15.144-14.82C52.78,41.501,58.535,33,66.921,33c9.383,0,17.017,7.626,17.017,17s-7.634,17-17.017,17 c-1.733,0-3.444-0.26-5.085-0.772l1.27-4.056c1.229,0.384,2.512,0.579,3.815,0.579c7.037,0,12.763-5.72,12.763-12.75 s-5.725-12.75-12.763-12.75c-6.155,0-10.956,7.265-14.033,12.729C49.246,56.736,43.714,67,34.017,67z" />
  <path fill="#472b29" d="M34.017,67.7C24.248,67.7,16.3,59.76,16.3,50s7.948-17.7,17.717-17.7 c1.805,0,3.585,0.271,5.294,0.804l0.668,0.209l-1.689,5.392l-0.668-0.209c-1.161-0.363-2.374-0.547-3.605-0.547 c-6.651,0-12.063,5.406-12.063,12.05s5.411,12.05,12.063,12.05c6.738,0,11.425-8.697,14.527-14.451 C52.245,41.024,58.168,32.3,66.92,32.3c9.769,0,17.717,7.94,17.717,17.7S76.689,67.7,66.92,67.7c-1.804,0-3.585-0.271-5.293-0.804 l-0.669-0.209l1.689-5.392l0.668,0.209c1.161,0.363,2.374,0.547,3.605,0.547c6.651,0,12.063-5.406,12.063-12.05 S73.572,37.95,66.92,37.95c-5.787,0-10.432,7.061-13.423,12.373C49.771,57.236,44.132,67.7,34.017,67.7z M34.017,33.7 C25.02,33.7,17.7,41.012,17.7,50s7.32,16.3,16.317,16.3c9.279,0,14.68-10.021,18.254-16.653C55.44,44.018,60.399,36.55,66.92,36.55 c7.423,0,13.463,6.034,13.463,13.45s-6.04,13.45-13.463,13.45c-1.137,0-2.261-0.141-3.35-0.419l-0.853,2.723 c1.366,0.363,2.776,0.546,4.203,0.546c8.997,0,16.317-7.312,16.317-16.3s-7.32-16.3-16.317-16.3 c-8.019,0-13.628,8.317-17.149,14.573C46.517,54.311,41.59,63.45,34.017,63.45c-7.423,0-13.463-6.034-13.463-13.45 s6.04-13.45,13.463-13.45c1.138,0,2.261,0.141,3.35,0.419l0.853-2.723C36.854,33.884,35.444,33.7,34.017,33.7z" />
  <path fill="#f1bc19" d="M54.728,54.003L54.728,54.003c0.284-0.474,0.899-0.627,1.372-0.343l5.144,3.088 c0.474,0.284,0.627,0.899,0.343,1.372l0,0c-0.284,0.474-0.899,0.627-1.372,0.343l-5.144-3.088 C54.597,55.091,54.444,54.477,54.728,54.003z" />
  <path fill="#472b29" d="M60.727,59.105c-0.263,0-0.528-0.069-0.77-0.214l-5.144-3.088c-0.344-0.206-0.586-0.534-0.683-0.922 c-0.097-0.389-0.037-0.792,0.169-1.135l0,0c0,0,0,0,0,0c0.206-0.344,0.534-0.586,0.922-0.683c0.389-0.097,0.792-0.037,1.136,0.169 l5.144,3.088c0.709,0.426,0.94,1.349,0.514,2.058C61.735,58.846,61.237,59.105,60.727,59.105z M55.586,54.018 c-0.041,0-0.082,0.005-0.122,0.015c-0.13,0.032-0.239,0.113-0.308,0.228v0c-0.069,0.115-0.089,0.249-0.057,0.379 c0.033,0.13,0.113,0.239,0.228,0.307l5.144,3.088c0.238,0.142,0.544,0.065,0.686-0.171c0.142-0.236,0.065-0.544-0.171-0.686 l-5.144-3.088C55.764,54.042,55.676,54.018,55.586,54.018z M54.728,54.003h0.01H54.728z" />
  <path fill="#f1bc19" d="M51.125,60.005L51.125,60.005c0.284-0.474,0.899-0.627,1.372-0.343l5.144,3.088 c0.474,0.284,0.627,0.899,0.343,1.372v0c-0.284,0.474-0.899,0.627-1.372,0.343l-5.144-3.088 C50.994,61.093,50.841,60.478,51.125,60.005z" />
  <path fill="#472b29" d="M57.125,65.107c-0.263,0-0.528-0.069-0.77-0.214l-5.145-3.088c-0.344-0.206-0.586-0.534-0.683-0.922 c-0.097-0.389-0.037-0.792,0.169-1.135c0,0,0,0,0,0c0.206-0.344,0.534-0.586,0.923-0.683c0.387-0.097,0.792-0.037,1.135,0.169 l5.145,3.088c0.709,0.426,0.94,1.349,0.514,2.058C58.132,64.848,57.634,65.107,57.125,65.107z M51.554,60.262 c-0.069,0.115-0.089,0.249-0.057,0.379c0.033,0.13,0.113,0.239,0.228,0.307l5.145,3.088c0.238,0.142,0.544,0.065,0.686-0.171 s0.065-0.544-0.171-0.686l-5.145-3.088c-0.114-0.069-0.249-0.089-0.378-0.056C51.731,60.067,51.623,60.148,51.554,60.262z" />
  <path fill="#bd977c" d="M62.536,68.572c-0.671,0-1.332-0.184-1.91-0.531l-2.778-1.668l-0.276,0.302 c-0.377,0.412-0.915,0.649-1.477,0.649c-0.36,0-0.715-0.099-1.026-0.286c-0.945-0.568-1.253-1.799-0.686-2.744l5.661-9.431 c0.365-0.608,1.007-0.971,1.717-0.971c0.361,0,0.716,0.099,1.027,0.286c0.812,0.488,1.172,1.489,0.857,2.38l-0.137,0.385 l2.778,1.668c0.852,0.511,1.453,1.323,1.694,2.287s0.092,1.963-0.419,2.815l-1.833,3.055 C65.049,67.897,63.856,68.572,62.536,68.572C62.536,68.572,62.536,68.572,62.536,68.572z" />
  <path fill="#472b29" d="M61.761,54.391c0.27,0,0.536,0.074,0.77,0.214c0.609,0.366,0.88,1.116,0.643,1.784l-0.273,0.771 l0.701,0.421l2.428,1.458c0.737,0.442,1.258,1.146,1.466,1.979c0.208,0.834,0.079,1.699-0.363,2.437l-1.833,3.055 c-0.587,0.979-1.621,1.563-2.764,1.563c-0.58,0-1.152-0.159-1.653-0.459l-2.428-1.458l-0.701-0.421l-0.552,0.604 c-0.282,0.309-0.686,0.486-1.108,0.486c-0.27,0-0.536-0.074-0.769-0.214c-0.709-0.426-0.94-1.349-0.514-2.058l5.661-9.431 C60.747,54.663,61.228,54.391,61.761,54.391 M61.761,53.391c-0.849,0-1.677,0.433-2.146,1.214l-5.661,9.431 c-0.711,1.184-0.327,2.719,0.857,3.43c0.403,0.242,0.846,0.357,1.284,0.357c0.689,0,1.365-0.286,1.846-0.811l2.428,1.458 c0.68,0.408,1.428,0.602,2.167,0.602c1.433,0,2.83-0.73,3.621-2.048l1.833-3.055c1.199-1.998,0.552-4.589-1.446-5.788 l-2.428-1.458c0.389-1.098-0.034-2.353-1.071-2.976C62.643,53.506,62.199,53.391,61.761,53.391L61.761,53.391z" />
  <g>
    <path fill="#bd977c" d="M42.181,47.626c-0.398,0-0.784-0.118-1.116-0.342c-0.785-0.529-1.093-1.548-0.73-2.421l0.156-0.378 l-3.051-2.057c-1.956-1.319-2.475-3.984-1.156-5.94l2.483-3.683c0.797-1.182,2.125-1.888,3.552-1.888 c0.853,0,1.678,0.253,2.388,0.732l3.051,2.057l0.291-0.287c0.375-0.369,0.874-0.572,1.403-0.572c0.398,0,0.784,0.118,1.116,0.342 c0.914,0.616,1.157,1.862,0.54,2.776l-7.267,10.779C43.469,47.296,42.849,47.626,42.181,47.626L42.181,47.626z" />
    <path fill="#472b29" d="M42.319,31.417L42.319,31.417c0.752,0,1.481,0.223,2.108,0.646l2.712,1.829l0.678,0.457 l0.583-0.573c0.277-0.272,0.661-0.429,1.053-0.429c0.298,0,0.587,0.088,0.836,0.256c0.686,0.462,0.868,1.397,0.405,2.083 l-7.267,10.779c-0.279,0.415-0.745,0.662-1.246,0.662c-0.298,0-0.587-0.088-0.837-0.256c-0.589-0.397-0.819-1.161-0.548-1.815 l0.313-0.755l-0.678-0.457l-2.712-1.829c-1.728-1.165-2.186-3.519-1.021-5.246l2.483-3.683 C39.885,32.04,41.058,31.417,42.319,31.417 M42.319,30.417c-1.536,0-3.044,0.739-3.967,2.108l-2.483,3.683 c-1.476,2.188-0.897,5.159,1.291,6.634l2.712,1.829c-0.446,1.076-0.09,2.352,0.913,3.027c0.429,0.289,0.915,0.427,1.395,0.427 c0.803,0,1.592-0.386,2.075-1.103l7.267-10.779c0.772-1.145,0.469-2.699-0.675-3.471c-0.428-0.289-0.914-0.427-1.395-0.427 c-0.644,0-1.279,0.248-1.754,0.716l-2.712-1.829C44.167,30.682,43.238,30.417,42.319,30.417L42.319,30.417z" />
  </g>
  <g>
    <circle cx="63" cy="63" r="1" fill="#f1bc19" />
    <path fill="#472b29" d="M63,64.25c-0.689,0-1.25-0.561-1.25-1.25s0.561-1.25,1.25-1.25s1.25,0.561,1.25,1.25 S63.689,64.25,63,64.25z M63,62.25c-0.414,0-0.75,0.336-0.75,0.75s0.336,0.75,0.75,0.75s0.75-0.336,0.75-0.75 S63.414,62.25,63,62.25z" />
  </g>
  <g>
    <circle cx="40.5" cy="36.5" r="1" fill="#f1bc19" />
    <path fill="#472b29" d="M40.5,37.75c-0.689,0-1.25-0.561-1.25-1.25s0.561-1.25,1.25-1.25s1.25,0.561,1.25,1.25 S41.189,37.75,40.5,37.75z M40.5,35.75c-0.414,0-0.75,0.336-0.75,0.75s0.336,0.75,0.75,0.75s0.75-0.336,0.75-0.75 S40.914,35.75,40.5,35.75z" />
  </g>
  <g>
    <path fill="#472b29" d="M40.458,45c-0.096,0-0.192-0.027-0.278-0.085c-0.229-0.154-0.291-0.464-0.137-0.694l6.021-8.979 c0.154-0.229,0.464-0.291,0.694-0.137c0.229,0.154,0.291,0.464,0.137,0.694l-6.021,8.979C40.777,44.922,40.619,45,40.458,45z" />
  </g>
  <g>
    <path fill="#472b29" d="M57.583,67.042c-0.089,0-0.179-0.024-0.261-0.074c-0.235-0.144-0.31-0.452-0.165-0.688l4.667-7.625 c0.144-0.235,0.451-0.31,0.688-0.166c0.235,0.144,0.31,0.452,0.165,0.688l-4.667,7.625C57.916,66.957,57.751,67.042,57.583,67.042z" />
  </g>
  <g>
    <path fill="#472b29" d="M28.115,44.117c-0.065,0-0.131-0.026-0.18-0.077c-0.096-0.1-0.093-0.258,0.007-0.353 c0.832-0.798,1.795-1.416,2.864-1.835c0.128-0.05,0.273,0.013,0.324,0.141c0.05,0.129-0.013,0.274-0.142,0.324 c-1.008,0.395-1.917,0.977-2.7,1.73C28.239,44.094,28.177,44.117,28.115,44.117z" />
  </g>
  <g>
    <path fill="#472b29" d="M25.5,50.25c-0.138,0-0.25-0.112-0.25-0.25c0-1.649,0.461-3.255,1.333-4.644 c0.075-0.117,0.229-0.152,0.345-0.079c0.117,0.073,0.152,0.228,0.079,0.345c-0.822,1.31-1.256,2.824-1.256,4.378 C25.75,50.138,25.638,50.25,25.5,50.25z" />
  </g>
  <g>
    <path fill="#472b29" d="M34,58.75c-3.803,0-7.147-2.427-8.322-6.041c-0.042-0.131,0.029-0.272,0.161-0.315 c0.131-0.042,0.272,0.029,0.315,0.161c1.108,3.406,4.261,5.695,7.847,5.695c0.138,0,0.25,0.112,0.25,0.25S34.138,58.75,34,58.75z" />
  </g>
  <g>
    <path fill="#472b29" d="M70.868,57.821c-0.091,0-0.178-0.05-0.223-0.136c-0.063-0.123-0.014-0.274,0.109-0.336 c1.101-0.564,2.079-1.384,2.827-2.373c0.083-0.11,0.241-0.131,0.35-0.048c0.11,0.083,0.132,0.24,0.048,0.35 c-0.793,1.048-1.83,1.918-2.998,2.516C70.945,57.812,70.906,57.821,70.868,57.821z" />
  </g>
  <g>
    <path fill="#472b29" d="M74.78,53.68c-0.034,0-0.068-0.007-0.101-0.021c-0.126-0.056-0.184-0.203-0.127-0.33 c0.463-1.051,0.699-2.171,0.699-3.329c0-0.138,0.112-0.25,0.25-0.25s0.25,0.112,0.25,0.25c0,1.228-0.25,2.416-0.742,3.531 C74.967,53.624,74.875,53.68,74.78,53.68z" />
  </g>
  <g>
    <path fill="#472b29" d="M75.191,47.97c-0.11,0-0.21-0.073-0.241-0.183c-0.988-3.555-4.257-6.037-7.95-6.037 c-0.138,0-0.25-0.112-0.25-0.25s0.112-0.25,0.25-0.25c3.917,0,7.384,2.633,8.432,6.403c0.037,0.133-0.041,0.271-0.174,0.308 C75.235,47.967,75.213,47.97,75.191,47.97z" />
  </g>
</svg>