<?xml version="1.0" encoding="utf-8"?>
<svg xmlns="http://www.w3.org/2000/svg" viewBox="0 0 100 100" width="1000" height="1000">
  <path fill="#ee3e54" d="M13 27A2 2 0 1 0 13 31A2 2 0 1 0 13 27Z" />
  <path fill="#f1bc19" d="M77 12A1 1 0 1 0 77 14A1 1 0 1 0 77 12Z" />
  <path fill="#fce0a2" d="M50 13A37 37 0 1 0 50 87A37 37 0 1 0 50 13Z" />
  <path fill="#f1bc19" d="M83 11A4 4 0 1 0 83 19A4 4 0 1 0 83 11Z" />
  <path fill="#ee3e54" d="M87 22A2 2 0 1 0 87 26A2 2 0 1 0 87 22Z" />
  <path fill="#fbcd59" d="M81 74A2 2 0 1 0 81 78 2 2 0 1 0 81 74zM15 59A4 4 0 1 0 15 67 4 4 0 1 0 15 59z" />
  <path fill="#ee3e54" d="M25 85A2 2 0 1 0 25 89A2 2 0 1 0 25 85Z" />
  <path fill="#fff" d="M18.5 51A2.5 2.5 0 1 0 18.5 56A2.5 2.5 0 1 0 18.5 51Z" />
  <path fill="#f1bc19" d="M21 66A1 1 0 1 0 21 68A1 1 0 1 0 21 66Z" />
  <path fill="#fff" d="M80 33A1 1 0 1 0 80 35A1 1 0 1 0 80 33Z" />
  <path fill="#472b29" d="M55.5,74c-0.276,0-0.5-0.223-0.5-0.497v-23.61c0-0.275,0.224-0.497,0.5-0.497s0.5,0.223,0.5,0.497 v23.61C56,73.778,55.776,74,55.5,74z" />
  <path fill="#f1bc19" d="M54.464,59.322v1.862c0,0.674,0.552,1.226,1.226,1.226s1.226-0.552,1.226-1.226v-1.862H54.464z" />
  <path fill="#472b29" d="M55.69,62.927c-0.962,0-1.744-0.782-1.744-1.744v-1.862c0-0.286,0.232-0.519,0.519-0.519h2.452 c0.286,0,0.519,0.232,0.519,0.519v1.862C57.434,62.146,56.652,62.927,55.69,62.927z M54.982,59.841v1.343 c0,0.39,0.317,0.707,0.707,0.707s0.707-0.317,0.707-0.707v-1.343H54.982z" />
  <path fill="#fdfcee" d="M42.023,59.3c-1.833,0-3.323-1.542-3.323-3.438V28.138c0-1.896,1.49-3.438,3.323-3.438h26.954 c1.833,0,3.323,1.542,3.323,3.438v27.726c0,1.895-1.49,3.437-3.323,3.437H42.023z" />
  <path fill="#472b29" d="M68.977,25.4c1.446,0,2.623,1.228,2.623,2.738v27.726c0,1.509-1.177,2.737-2.623,2.737H42.023 c-1.446,0-2.623-1.228-2.623-2.738V28.138c0-1.51,1.177-2.738,2.623-2.738H68.977 M68.977,24H42.023C39.81,24,38,25.862,38,28.138 v27.724C38,58.138,39.81,60,42.023,60h26.955C71.19,60,73,58.138,73,55.863V28.138C73,25.862,71.19,24,68.977,24L68.977,24z" />
  <path fill="#ee3e54" d="M43.138 27.359A1.148 1.148 0 1 0 43.138 29.655A1.148 1.148 0 1 0 43.138 27.359Z" />
  <path fill="#472b29" d="M43.138,30.011c-0.83,0-1.506-0.674-1.506-1.506c0-0.831,0.675-1.506,1.506-1.506 s1.506,0.674,1.506,1.506C44.644,29.337,43.967,30.011,43.138,30.011z M43.138,27.716c-0.436,0-0.791,0.355-0.791,0.791 c0,0.436,0.355,0.791,0.791,0.791s0.791-0.355,0.791-0.791C43.929,28.071,43.574,27.716,43.138,27.716z" />
  <path fill="#f1bc19" d="M47.156 27.359A1.148 1.148 0 1 0 47.156 29.655A1.148 1.148 0 1 0 47.156 27.359Z" />
  <path fill="#472b29" d="M47.157,30.011c-0.83,0-1.506-0.674-1.506-1.506c0-0.831,0.675-1.506,1.506-1.506 s1.506,0.674,1.506,1.506C48.663,29.337,47.986,30.011,47.157,30.011z M47.157,27.716c-0.436,0-0.792,0.355-0.792,0.791 c0,0.436,0.355,0.791,0.792,0.791s0.791-0.355,0.791-0.791C47.948,28.071,47.593,27.716,47.157,27.716z" />
  <path fill="#88ae45" d="M51.175 27.359A1.148 1.148 0 1 0 51.175 29.655A1.148 1.148 0 1 0 51.175 27.359Z" />
  <path fill="#472b29" d="M51.175,30.011c-0.83,0-1.506-0.674-1.506-1.506c0-0.831,0.675-1.506,1.506-1.506 s1.506,0.674,1.506,1.506C52.681,29.337,52.005,30.011,51.175,30.011z M51.175,27.716c-0.436,0-0.791,0.355-0.791,0.791 c0,0.436,0.355,0.791,0.791,0.791s0.791-0.355,0.791-0.791C51.966,28.071,51.611,27.716,51.175,27.716z" />
  <path fill="#c0e5e4" d="M62.5 46.5H69.5V52.5H62.5z" />
  <path fill="#472b29" d="M69,47v5h-6v-5H69 M70,46h-8v7h8V46L70,46z" />
  <path fill="#c0e5e4" d="M53.5 34.5H69.5V43.5H53.5z" />
  <path fill="#472b29" d="M69.5,44H57.375c-0.276,0-0.5-0.224-0.5-0.5s0.224-0.5,0.5-0.5H69v-8H54v8.5 c0,0.276-0.224,0.5-0.5,0.5S53,43.776,53,43.5v-9c0-0.276,0.224-0.5,0.5-0.5h16c0.276,0,0.5,0.224,0.5,0.5v9 C70,43.776,69.776,44,69.5,44z" />
  <g>
    <path fill="#472b29" d="M58.5,32h-20c-0.276,0-0.5-0.224-0.5-0.5s0.224-0.5,0.5-0.5h20c0.276,0,0.5,0.224,0.5,0.5 S58.776,32,58.5,32z" />
  </g>
  <g>
    <path fill="#472b29" d="M61.5,56h-23c-0.276,0-0.5-0.224-0.5-0.5s0.224-0.5,0.5-0.5h23c0.276,0,0.5,0.224,0.5,0.5 S61.776,56,61.5,56z" />
  </g>
  <g>
    <path fill="#472b29" d="M50.5,54c-0.276,0-0.5-0.224-0.5-0.5v-20c0-0.276,0.224-0.5,0.5-0.5s0.5,0.224,0.5,0.5v20 C51,53.776,50.776,54,50.5,54z" />
  </g>
  <g>
    <path fill="#472b29" d="M72.5,56h-8c-0.276,0-0.5-0.224-0.5-0.5s0.224-0.5,0.5-0.5h8c0.276,0,0.5,0.224,0.5,0.5 S72.776,56,72.5,56z" />
  </g>
  <g>
    <path fill="#472b29" d="M47.5,35h-6c-0.276,0-0.5-0.224-0.5-0.5s0.224-0.5,0.5-0.5h6c0.276,0,0.5,0.224,0.5,0.5 S47.776,35,47.5,35z" />
  </g>
  <g>
    <path fill="#472b29" d="M47.5,39h-6c-0.276,0-0.5-0.224-0.5-0.5s0.224-0.5,0.5-0.5h6c0.276,0,0.5,0.224,0.5,0.5 S47.776,39,47.5,39z" />
  </g>
  <g>
    <path fill="#472b29" d="M47.5,43h-6c-0.276,0-0.5-0.224-0.5-0.5s0.224-0.5,0.5-0.5h6c0.276,0,0.5,0.224,0.5,0.5 S47.776,43,47.5,43z" />
  </g>
  <g>
    <path fill="#472b29" d="M47.5,47h-6c-0.276,0-0.5-0.224-0.5-0.5s0.224-0.5,0.5-0.5h6c0.276,0,0.5,0.224,0.5,0.5 S47.776,47,47.5,47z" />
  </g>
  <g>
    <path fill="#472b29" d="M59.5,47h-6c-0.276,0-0.5-0.224-0.5-0.5s0.224-0.5,0.5-0.5h6c0.276,0,0.5,0.224,0.5,0.5 S59.776,47,59.5,47z" />
  </g>
  <g>
    <path fill="#472b29" d="M59.5,50h-6c-0.276,0-0.5-0.224-0.5-0.5s0.224-0.5,0.5-0.5h6c0.276,0,0.5,0.224,0.5,0.5 S59.776,50,59.5,50z" />
  </g>
  <g>
    <path fill="#472b29" d="M59.5,53h-6c-0.276,0-0.5-0.224-0.5-0.5s0.224-0.5,0.5-0.5h6c0.276,0,0.5,0.224,0.5,0.5 S59.776,53,59.5,53z" />
  </g>
  <g>
    <path fill="#472b29" d="M65.5,32h-4c-0.276,0-0.5-0.224-0.5-0.5s0.224-0.5,0.5-0.5h4c0.276,0,0.5,0.224,0.5,0.5 S65.776,32,65.5,32z" />
  </g>
  <g>
    <path fill="#472b29" d="M70.5,32h-2c-0.276,0-0.5-0.224-0.5-0.5s0.224-0.5,0.5-0.5h2c0.276,0,0.5,0.224,0.5,0.5 S70.776,32,70.5,32z" />
  </g>
  <g>
    <path fill="#472b29" d="M50.393,72.937c-5.091,0-9.666-0.009-11.937-0.037c-5.832,0-6.581-4.789-6.581-8.962 C31.876,63.748,32,45.251,32,39.517c0-3.762-1.709-4.518-4.468-4.518H24.5c-0.276,0-0.5-0.224-0.5-0.5s0.224-0.5,0.5-0.5h3.032 c2.704,0,5.468,0.655,5.468,5.518c0,5.738-0.124,24.238-0.125,24.424c0,4.133,0.677,7.959,5.587,7.959 c6.774,0.085,34.066,0.001,34.341,0c2.151,0,3.197-1.013,3.197-3.097c-0.105-4.088-0.001-11.808,0-11.885 C76,56.886,76.05,53,80.335,53H84.5c0.276,0,0.5,0.224,0.5,0.5S84.776,54,84.5,54h-4.165c-3.218,0-3.333,2.627-3.335,2.927 c-0.001,0.082-0.105,7.782,0,11.863c0,2.654-1.49,4.109-4.195,4.109C72.623,72.9,60.493,72.937,50.393,72.937z" />
  </g>
  <g>
    <path fill="#472b29" d="M22.5,33c0.827,0,1.5,0.673,1.5,1.5S23.327,36,22.5,36S21,35.327,21,34.5S21.673,33,22.5,33 M22.5,32c-1.381,0-2.5,1.119-2.5,2.5s1.119,2.5,2.5,2.5s2.5-1.119,2.5-2.5S23.881,32,22.5,32L22.5,32z" />
  </g>
  <g>
    <path fill="#8a8dce" d="M55.5 70.5A2 2 0 1 0 55.5 74.5A2 2 0 1 0 55.5 70.5Z" />
    <path fill="#472b29" d="M55.5,71c0.827,0,1.5,0.673,1.5,1.5S56.327,74,55.5,74S54,73.327,54,72.5S54.673,71,55.5,71 M55.5,70c-1.381,0-2.5,1.119-2.5,2.5s1.119,2.5,2.5,2.5s2.5-1.119,2.5-2.5S56.881,70,55.5,70L55.5,70z" />
  </g>
</svg>