<?xml version="1.0" encoding="utf-8"?>
<svg xmlns="http://www.w3.org/2000/svg" viewBox="0 0 100 100" width="500" height="500">
  <path fill="#ee3e54" d="M13 27A2 2 0 1 0 13 31A2 2 0 1 0 13 27Z" />
  <path fill="#f1bc19" d="M77 12A1 1 0 1 0 77 14A1 1 0 1 0 77 12Z" />
  <path fill="#fce0a2" d="M50 13A37 37 0 1 0 50 87A37 37 0 1 0 50 13Z" />
  <path fill="#f1bc19" d="M83 11A4 4 0 1 0 83 19A4 4 0 1 0 83 11Z" />
  <path fill="#ee3e54" d="M87 22A2 2 0 1 0 87 26A2 2 0 1 0 87 22Z" />
  <path fill="#fbcd59" d="M81 74A2 2 0 1 0 81 78 2 2 0 1 0 81 74zM15 59A4 4 0 1 0 15 67 4 4 0 1 0 15 59z" />
  <path fill="#ee3e54" d="M25 85A2 2 0 1 0 25 89A2 2 0 1 0 25 85Z" />
  <path fill="#fff" d="M18.5 51A2.5 2.5 0 1 0 18.5 56A2.5 2.5 0 1 0 18.5 51Z" />
  <path fill="#f1bc19" d="M21 66A1 1 0 1 0 21 68A1 1 0 1 0 21 66Z" />
  <path fill="#fff" d="M80 33A1 1 0 1 0 80 35A1 1 0 1 0 80 33Z" />
  <g>
    <path fill="#48bed8" d="M35,72.3c-4.025,0-7.3-3.274-7.3-7.3V35c0-4.025,3.274-7.3,7.3-7.3h30c4.025,0,7.3,3.274,7.3,7.3 v30c0,4.025-3.274,7.3-7.3,7.3H35z" />
    <path fill="#472b29" d="M65,28.4c3.639,0,6.6,2.961,6.6,6.6v30c0,3.639-2.961,6.6-6.6,6.6H35c-3.639,0-6.6-2.961-6.6-6.6 V35c0-3.639,2.961-6.6,6.6-6.6H65 M65,27H35c-4.4,0-8,3.6-8,8v30c0,4.4,3.6,8,8,8h30c4.4,0,8-3.6,8-8V35C73,30.6,69.4,27,65,27 L65,27z" />
  </g>
  <g>
    <path fill="#fffef4" d="M68.5,47.875v1.75V64c0,2.475-2.025,4.5-4.5,4.5H36c-2.475,0-4.5-2.025-4.5-4.5V36 c0-2.475,2.025-4.5,4.5-4.5h25.375H64c2.475,0,4.5,2.025,4.5,4.5v3.375v2v1V43.5v2.875V47.875" />
  </g>
  <g>
    <path fill="#472b29" d="M68.5,47.375c-0.276,0-0.5-0.224-0.5-0.5V43c0-0.276,0.224-0.5,0.5-0.5S69,42.724,69,43v3.875 C69,47.151,68.776,47.375,68.5,47.375z" />
  </g>
  <g>
    <path fill="#472b29" d="M68.5,40.5c-0.276,0-0.5-0.224-0.5-0.5v-2c0-0.276,0.224-0.5,0.5-0.5S69,37.724,69,38v2 C69,40.276,68.776,40.5,68.5,40.5z" />
  </g>
  <g>
    <path fill="#472b29" d="M64,69H36c-2.757,0-5-2.243-5-5V36c0-2.757,2.243-5,5-5h25.375c0.276,0,0.5,0.224,0.5,0.5 s-0.224,0.5-0.5,0.5H36c-2.206,0-4,1.794-4,4v28c0,2.206,1.794,4,4,4h28c2.206,0,4-1.794,4-4V49.625c0-0.276,0.224-0.5,0.5-0.5 s0.5,0.224,0.5,0.5V64C69,66.757,66.757,69,64,69z" />
  </g>
  <g>
    <path fill="#48bed8" d="M39.714,47.403L37,44.714c3.328-3.274,7.912-5.298,12.973-5.298c5.089,0,9.695,2.046,13.027,5.352 l-2.708,2.683c-2.657-2.584-6.296-4.18-10.314-4.18C45.986,43.271,42.368,44.847,39.714,47.403z M49.989,50.537 c1.981,0,3.779,0.777,5.103,2.038l2.708-2.683c-1.999-1.984-4.763-3.212-7.816-3.212c-3.037,0-5.787,1.214-7.784,3.179l2.714,2.689 C46.236,51.304,48.021,50.537,49.989,50.537z M50.071,55.413c-1.278,0-2.315,1.027-2.315,2.293c0,1.267,1.036,2.293,2.315,2.293 s2.315-1.027,2.315-2.293C52.385,56.44,51.349,55.413,50.071,55.413z" />
    <path fill="#472b29" d="M50.071,60.5c-1.553,0-2.815-1.253-2.815-2.793c0-1.541,1.263-2.794,2.815-2.794 c1.552,0,2.814,1.253,2.814,2.794C52.886,59.247,51.623,60.5,50.071,60.5z M50.071,55.913c-1.001,0-1.815,0.805-1.815,1.794 c0,0.988,0.814,1.793,1.815,1.793s1.814-0.805,1.814-1.793C51.886,56.718,51.072,55.913,50.071,55.913z M55.099,53.272 l-0.352-0.335c-1.286-1.226-2.976-1.9-4.758-1.9c-1.769,0-3.449,0.666-4.732,1.876l-0.352,0.332l-3.417-3.386l0.361-0.355 c2.178-2.143,5.066-3.322,8.134-3.322c3.086,0,5.987,1.191,8.169,3.356l0.357,0.354L55.099,53.272z M49.989,50.037 c1.877,0,3.664,0.654,5.085,1.852l2.007-1.988c-1.945-1.757-4.446-2.719-7.098-2.719c-2.634,0-5.122,0.951-7.063,2.688l2.014,1.995 C46.35,50.683,48.127,50.037,49.989,50.037z M60.295,48.151l-0.352-0.342c-2.678-2.604-6.217-4.038-9.965-4.038 c-3.722,0-7.244,1.417-9.917,3.991l-0.352,0.339l-3.422-3.389l0.361-0.355c3.567-3.509,8.299-5.441,13.323-5.441 c5.055,0,9.806,1.952,13.38,5.498l0.357,0.354L60.295,48.151z M49.979,42.771c3.846,0,7.485,1.411,10.305,3.984l2.002-1.982 c-3.341-3.137-7.693-4.857-12.313-4.857c-4.59,0-8.922,1.702-12.256,4.804l2.009,1.989C42.538,44.166,46.16,42.771,49.979,42.771z" />
  </g>
</svg>