<?xml version="1.0" encoding="utf-8"?>
<svg xmlns="http://www.w3.org/2000/svg" viewBox="0 0 100 100" width="400" height="400">
  <path fill="#f15b6c" d="M77,40c0,16-27,47-27,47S23,56,23,40c0-14.912,12.088-27,27-27S77,25.088,77,40z" />
  <circle cx="50" cy="40" r="21" fill="#fefdef" />
  <path fill="#78a1d1" d="M55.5,47H52V35h6.5c0.944,0,1.833,0.445,2.4,1.2l1.9,2.533c0.13,0.173,0.2,0.384,0.2,0.6V45 c0,1.105-0.895,2-2,2h-0.5" />
  <path fill="#78a1d1" d="M40,31h10c1.105,0,2,0.895,2,2v14H42c-1.105,0-2-0.895-2-2V31z" />
  <circle cx="58" cy="47" r="2.5" fill="#4e6e91" />
  <circle cx="46" cy="47" r="2.5" fill="#4e6e91" />
  <g>
    <path fill="#1f212b" d="M61,48h-0.5v-2H61c0.552,0,1-0.448,1-1v-5.667L60.101,36.8C59.725,36.299,59.126,36,58.5,36H53v10 h2.5v2H52c-0.553,0-1-0.447-1-1V35c0-0.553,0.447-1,1-1h6.5c1.252,0,2.448,0.598,3.2,1.6l1.899,2.534 c0.258,0.343,0.4,0.77,0.4,1.199V45C64,46.654,62.654,48,61,48z" />
    <path fill="#1f212b" d="M58,50c-1.654,0-3-1.346-3-3s1.346-3,3-3s3,1.346,3,3S59.654,50,58,50z M58,45c-1.103,0-2,0.897-2,2 s0.897,2,2,2s2-0.897,2-2S59.103,45,58,45z" />
    <path fill="#1f212b" d="M46,50c-1.654,0-3-1.346-3-3s1.346-3,3-3s3,1.346,3,3S47.654,50,46,50z M46,45c-1.103,0-2,0.897-2,2 s0.897,2,2,2s2-0.897,2-2S47.103,45,46,45z" />
    <path fill="#1f212b" d="M45,37h-6c-0.553,0-1-0.447-1-1s0.447-1,1-1h6c0.553,0,1,0.447,1,1S45.553,37,45,37z" />
    <path fill="#1f212b" d="M42,46c-0.552,0-1-0.448-1-1v-4c0-0.552-0.448-1-1-1s-1,0.448-1,1v4c0,1.654,1.346,3,3,3h1.5v-2H42z" />
    <path fill="#1f212b" d="M50,30H38c-0.552,0-1,0.448-1,1s0.448,1,1,1h12c0.552,0,1,0.448,1,1v13h-2.5v2H52 c0.553,0,1-0.447,1-1V33C53,31.346,51.654,30,50,30z" />
    <path fill="#1f212b" d="M50,88c-0.289,0-0.564-0.125-0.754-0.343C48.134,86.379,22,56.188,22,40c0-15.439,12.561-28,28-28 s28,12.561,28,28c0,16.188-26.134,46.379-27.246,47.657C50.564,87.875,50.289,88,50,88z M50,14c-14.337,0-26,11.664-26,26 c0,13.962,21.65,40.308,26,45.459C54.35,80.308,76,53.962,76,40C76,25.664,64.337,14,50,14z" />
    <path fill="#1f212b" d="M50,61c-11.579,0-21-9.42-21-21s9.421-21,21-21c3.427,0,6.702,0.81,9.733,2.407 c0.244,0.129,0.338,0.431,0.209,0.675c-0.13,0.245-0.434,0.337-0.676,0.209C56.381,20.771,53.263,20,50,20 c-11.028,0-20,8.972-20,20s8.972,20,20,20c10.937,0,19.711-8.571,19.975-19.512c0.007-0.276,0.251-0.467,0.512-0.488 c0.276,0.007,0.495,0.236,0.488,0.512C70.697,52,61.484,61,50,61z M69.431,34c-0.209,0-0.404-0.132-0.475-0.341 c-0.332-0.995-0.752-1.979-1.249-2.927c-0.128-0.245-0.033-0.547,0.211-0.675c0.243-0.128,0.547-0.036,0.676,0.211 c0.521,0.994,0.962,2.028,1.312,3.073c0.087,0.262-0.054,0.545-0.316,0.633C69.536,33.992,69.483,34,69.431,34z M66.216,28 c-0.149,0-0.298-0.067-0.396-0.195c-1.139-1.479-2.478-2.792-3.979-3.903c-0.222-0.164-0.269-0.478-0.104-0.699 c0.166-0.222,0.479-0.269,0.7-0.104c1.575,1.166,2.98,2.544,4.177,4.097c0.168,0.219,0.127,0.533-0.092,0.701 C66.43,27.966,66.322,28,66.216,28z" />
  </g>
</svg>