<?xml version="1.0" encoding="utf-8"?>
<svg xmlns="http://www.w3.org/2000/svg" viewBox="0 0 100 100" width="500" height="500">
  <path fill="#ee3e54" d="M13 27A2 2 0 1 0 13 31A2 2 0 1 0 13 27Z" />
  <path fill="#f1bc19" d="M77 12A1 1 0 1 0 77 14A1 1 0 1 0 77 12Z" />
  <path fill="#fce0a2" d="M50.25 13.082999999999998A37 37 0 1 0 50.25 87.083A37 37 0 1 0 50.25 13.082999999999998Z" />
  <path fill="#f1bc19" d="M83 11A4 4 0 1 0 83 19A4 4 0 1 0 83 11Z" />
  <path fill="#ee3e54" d="M87 22A2 2 0 1 0 87 26A2 2 0 1 0 87 22Z" />
  <path fill="#fbcd59" d="M81 74A2 2 0 1 0 81 78 2 2 0 1 0 81 74zM15 59A4 4 0 1 0 15 67 4 4 0 1 0 15 59z" />
  <path fill="#ee3e54" d="M25 85A2 2 0 1 0 25 89A2 2 0 1 0 25 85Z" />
  <path fill="#fff" d="M18.5 51A2.5 2.5 0 1 0 18.5 56A2.5 2.5 0 1 0 18.5 51Z" />
  <path fill="#f1bc19" d="M21 66A1 1 0 1 0 21 68A1 1 0 1 0 21 66Z" />
  <path fill="#fff" d="M80 33A1 1 0 1 0 80 35A1 1 0 1 0 80 33Z" />
  <g>
    <path fill="#48bed8" d="M53.5,79.3c-7.609,0-13.8-6.19-13.8-13.8c0-8.736,11.227-22.266,13.8-25.251 c2.573,2.985,13.8,16.515,13.8,25.251C67.3,73.109,61.109,79.3,53.5,79.3z" />
    <path fill="#472b29" d="M53.5,41.327c3.268,3.868,13.1,16.172,13.1,24.173c0,7.223-5.877,13.1-13.1,13.1 s-13.1-5.877-13.1-13.1C40.4,57.499,50.232,45.194,53.5,41.327 M53.5,39.185c0,0-14.5,16.111-14.5,26.315 C39,73.508,45.492,80,53.5,80S68,73.508,68,65.5C68,55.296,53.5,39.185,53.5,39.185L53.5,39.185z" />
    <path fill="#fff" d="M48.595,53c-3.928,5.083-10.511,18.917,3.905,23C49.047,72.206,45.083,66.167,48.595,53z" />
    <path fill="#472b29" d="M52.5,76.25c-0.022,0-0.046-0.003-0.068-0.01c-3.892-1.102-6.565-2.999-7.949-5.638 c-1.427-2.72-1.46-6.271-0.096-10.268c0.045-0.13,0.184-0.203,0.317-0.155c0.13,0.044,0.2,0.187,0.155,0.317 c-0.919,2.694-1.654,6.594,0.065,9.874c1.217,2.319,3.502,4.043,6.8,5.13c-0.762-0.888-1.685-2.083-2.482-3.55 c-0.065-0.121-0.021-0.272,0.101-0.339c0.121-0.065,0.271-0.022,0.339,0.101c0.992,1.824,2.189,3.225,3.003,4.119 c0.075,0.082,0.087,0.205,0.028,0.3C52.666,76.206,52.585,76.25,52.5,76.25z" />
    <path fill="#472b29" d="M48.234 69.255c-.104 0-.202-.066-.237-.171-1.378-4.138-1.368-9.017.036-14.883-.651.954-1.479 2.311-2.251 3.992-.058.126-.206.181-.332.123-.125-.058-.181-.206-.123-.332 1.146-2.496 2.415-4.29 3.069-5.138.073-.093.203-.122.309-.07.107.053.162.173.131.288-1.689 6.337-1.809 11.525-.364 15.861.044.131-.027.272-.158.316C48.287 69.251 48.261 69.255 48.234 69.255zM58.658 74.901c-.09 0-.176-.048-.221-.133-.064-.122-.019-.273.104-.338.656-.348 1.262-.737 1.798-1.158.109-.087.267-.066.351.042.086.108.066.266-.042.351-.56.439-1.189.846-1.872 1.207C58.738 74.892 58.698 74.901 58.658 74.901zM61.996 72.262c-.057 0-.112-.019-.159-.058-.106-.088-.121-.245-.033-.352 3.106-3.756 2.085-8.8.681-12.369-.051-.129.013-.273.141-.324.131-.049.274.013.324.141 1.454 3.695 2.502 8.928-.761 12.871C62.14 72.23 62.068 72.262 61.996 72.262z" />
    <g>
      <path fill="#472b29" d="M61.74,57.463c-0.092,0-0.18-0.051-0.224-0.138c-0.756-1.506-1.677-2.987-2.594-4.172 c-0.084-0.109-0.063-0.267,0.045-0.352c0.109-0.085,0.266-0.065,0.352,0.045c0.935,1.21,1.874,2.721,2.645,4.254 c0.062,0.123,0.012,0.273-0.111,0.336C61.816,57.454,61.778,57.463,61.74,57.463z" />
    </g>
  </g>
  <g>
    <path fill="#48bed8" d="M70.346,47.3c-2.699,0-4.896-2.196-4.896-4.896c0-2.706,3.16-7.022,4.893-9.083 c1.354,1.62,4.897,6.138,4.897,9.083C75.24,45.104,73.045,47.3,70.346,47.3z" />
    <path fill="#472b29" d="M70.348,34.418c1.925,2.401,4.193,5.905,4.193,7.986c0,2.313-1.882,4.195-4.195,4.195 s-4.195-1.882-4.195-4.195C66.15,40.15,68.631,36.562,70.348,34.418 M70.345,32.25c0,0-5.595,6.217-5.595,10.155 c0,3.09,2.505,5.595,5.595,5.595s5.595-2.505,5.595-5.595C75.941,38.467,70.345,32.25,70.345,32.25L70.345,32.25z" />
  </g>
  <g>
    <path fill="#48bed8" d="M35.221,49.8c-4.561,0-8.271-3.71-8.271-8.271c0-5.112,6.381-12.99,8.271-15.211 c1.89,2.221,8.27,10.099,8.27,15.211C43.49,46.09,39.78,49.8,35.221,49.8z" />
    <path fill="#472b29" d="M35.221,27.396c2.792,3.362,7.57,9.98,7.57,14.134c0,4.174-3.396,7.57-7.57,7.57 s-7.57-3.396-7.57-7.57C27.65,37.382,32.429,30.76,35.221,27.396 M35.22,25.25c0,0-8.97,9.967-8.97,16.28 c0,4.954,4.016,8.97,8.97,8.97s8.97-4.016,8.97-8.97C44.191,35.217,35.22,25.25,35.22,25.25L35.22,25.25z" />
    <path fill="#fff" d="M33.059,33.797c-2.33,3.015-6.234,11.219,2.316,13.641C33.327,45.187,30.976,41.605,33.059,33.797z" />
    <path fill="#472b29" d="M35.375,47.688c-0.022,0-0.046-0.003-0.068-0.01c-2.336-0.661-3.943-1.804-4.777-3.394 c-0.859-1.639-0.881-3.772-0.063-6.171c0.044-0.129,0.184-0.203,0.317-0.155c0.13,0.044,0.2,0.187,0.155,0.317 c-0.538,1.579-0.971,3.863,0.033,5.776c0.665,1.269,1.884,2.233,3.628,2.873c-0.401-0.493-0.851-1.11-1.247-1.841 c-0.065-0.121-0.021-0.272,0.101-0.339c0.122-0.065,0.273-0.021,0.339,0.101c0.583,1.073,1.287,1.896,1.767,2.424 c0.075,0.082,0.087,0.204,0.028,0.3C35.541,47.644,35.46,47.688,35.375,47.688z" />
    <path fill="#472b29" d="M32.846 43.539c-.104 0-.202-.066-.237-.171-.78-2.342-.817-5.076-.108-8.33-.319.508-.678 1.141-1.017 1.881-.058.126-.207.18-.332.123-.125-.058-.181-.206-.123-.332.683-1.488 1.441-2.56 1.832-3.066.073-.094.203-.123.309-.07.107.053.162.173.131.288-.996 3.738-1.067 6.796-.217 9.349.044.131-.027.272-.158.316C32.898 43.535 32.872 43.539 32.846 43.539zM37.703 47.296c-.082 0-.162-.04-.21-.115-.075-.115-.041-.271.075-.345.337-.218.646-.457.919-.713.1-.096.259-.091.353.011.095.101.09.259-.011.353-.294.277-.628.536-.991.77C37.797 47.283 37.75 47.296 37.703 47.296zM39.431 45.656c-.049 0-.099-.015-.142-.044-.114-.078-.143-.234-.064-.348 1.56-2.269.911-5.23.093-7.315-.051-.129.013-.274.141-.324.13-.051.275.013.324.141.863 2.198 1.538 5.333-.146 7.782C39.588 45.618 39.51 45.656 39.431 45.656z" />
    <g>
      <path fill="#472b29" d="M38.982,36.825c-0.092,0-0.181-0.051-0.225-0.14c-0.433-0.88-0.953-1.742-1.464-2.427 c-0.083-0.11-0.06-0.268,0.051-0.35c0.111-0.082,0.268-0.059,0.35,0.051c0.529,0.709,1.066,1.599,1.513,2.505 c0.061,0.124,0.01,0.273-0.114,0.335C39.058,36.817,39.02,36.825,38.982,36.825z" />
    </g>
  </g>
</svg>